<svg xmlns="http://www.w3.org/2000/svg" viewBox="0 0 240 240">

    <defs>
        <!-- Gradiente vibrante exclusivo para el texto -->
        <linearGradient id="textGrad" x1="0%" y1="0%" x2="100%" y2="0%">
            <stop offset="0%" stop-color="#00dbde" />
            <stop offset="100%" stop-color="#fc00ff" />
        </linearGradient>

        <!-- Gradiente de arcoíris para los triángulos (flechas) -->
        <linearGradient id="rainbowGrad" x1="0%" y1="0%" x2="100%" y2="100%">
            <stop offset="0%" stop-color="#FF3B30" />
            <stop offset="20%" stop-color="#FF9500" />
            <stop offset="40%" stop-color="#FFCC00" />
            <stop offset="60%" stop-color="#34C759" />
            <stop offset="80%" stop-color="#007AFF" />
            <stop offset="100%" stop-color="#AF52DE" />
        </linearGradient>
    </defs>

    <!-- Marco exterior -->
    <!-- rx="8" le da esquinas ligeramente más redondeadas para un look moderno -->
    <rect x="20" y="20" width="200" height="200" rx="8" fill="none" stroke="#ffffff" stroke-width="14" stroke-linejoin="round"/>
    
    <!-- Líneas divisorias interiores -->
    <line x1="150" y1="20" x2="150" y2="220" stroke="#ffffff" stroke-width="12" stroke-linecap="butt"/>
    <line x1="20" y1="150" x2="220" y2="150" stroke="#ffffff" stroke-width="12" stroke-linecap="butt"/>
    
    <!-- Panel Superior-Izquierdo: Texto centrado con gradiente -->
    <text x="85" y="75" font-family="sans-serif" font-size="18" font-weight="bold" fill="url(#textGrad)" text-anchor="middle">Scrollbar</text>
    <text x="85" y="105" font-family="sans-serif" font-size="18" font-weight="bold" fill="url(#textGrad)" text-anchor="middle">Chroma</text>

    <!-- Panel Superior-Derecho: Flechas Arriba/Abajo -->
    <!-- Flecha Arriba -->
    <polygon points="185,45 165,65 205,65" fill="url(#rainbowGrad)" stroke="url(#rainbowGrad)" stroke-width="6" stroke-linejoin="round"/>
    <!-- Flecha Abajo -->
    <polygon points="185,125 165,105 205,105" fill="url(#rainbowGrad)" stroke="url(#rainbowGrad)" stroke-width="6" stroke-linejoin="round"/>
    
    <!-- Panel Inferior-Izquierdo: Flechas Izquierda/Derecha -->
    <!-- Flecha Izquierda -->
    <polygon points="45,185 65,165 65,205" fill="url(#rainbowGrad)" stroke="url(#rainbowGrad)" stroke-width="6" stroke-linejoin="round"/>
    <!-- Flecha Derecha -->
    <polygon points="125,185 105,165 105,205" fill="url(#rainbowGrad)" stroke="url(#rainbowGrad)" stroke-width="6" stroke-linejoin="round"/>

    <!-- Panel Inferior-Derecho: Cuadrícula 3x3 con margen y colores CHROMA -->
    <!-- Fila 1 (Cálidos) -->
    <rect x="159" y="159" width="15" height="15" rx="3" fill="#FF3B30" />
    <rect x="177" y="159" width="15" height="15" rx="3" fill="#FF9500" />
    <rect x="195" y="159" width="15" height="15" rx="3" fill="#FFCC00" />
    
    <!-- Fila 2 (Fríos/Naturaleza) -->
    <rect x="159" y="177" width="15" height="15" rx="3" fill="#34C759" />
    <rect x="177" y="177" width="15" height="15" rx="3" fill="#5AC8FA" />
    <rect x="195" y="177" width="15" height="15" rx="3" fill="#007AFF" />
    
    <!-- Fila 3 (Morados/Rosas) -->
    <rect x="159" y="195" width="15" height="15" rx="3" fill="#5856D6" />
    <rect x="177" y="195" width="15" height="15" rx="3" fill="#AF52DE" />
    <rect x="195" y="195" width="15" height="15" rx="3" fill="#FF2D55" />
    
</svg>